<mxfile host="app.diagrams.net" modified="2023-11-02T05:52:01.629Z" agent="Mozilla/5.0 (Windows NT 10.0; Win64; x64) AppleWebKit/537.36 (KHTML, like Gecko) Chrome/118.0.0.0 Safari/537.36" version="21.5.0" etag="BsHJx08W3OfcdhqNekwV" type="github">
  <diagram name="Page-1" id="PKR7eD0JtCMEbjIIwMYw">
    <mxGraphModel>
      <root>
        <mxCell id="0" />
        <mxCell id="1" parent="0" />
      </root>
    </mxGraphModel>
  </diagram>
</mxfile>
